<svg width="59" height="59" viewBox="0 0 59 59" fill="none" xmlns="http://www.w3.org/2000/svg">
<path fill-rule="evenodd" clip-rule="evenodd" d="M45.8806 25.5568C45.6043 24.7579 44.8934 24.1729 44.0379 24.046L35.7117 22.8076L32.0916 15.2941C31.7117 14.5051 30.8963 14 29.9998 14C29.1043 14 28.2888 14.5051 27.908 15.2941L24.2889 22.8076L15.9617 24.046C15.1062 24.1729 14.3953 24.7579 14.1199 25.5568C13.8445 26.3574 14.0525 27.2393 14.6569 27.8418L20.7586 33.9346L19.3436 42.386C19.2 43.2364 19.5691 44.0909 20.2918 44.5891C20.6893 44.8614 21.1561 45 21.6227 45C22.0066 45 22.3914 44.9064 22.741 44.7197L29.9998 40.8116L37.2595 44.7197C37.6092 44.9064 37.9939 45 38.3767 45C38.8444 45 39.3103 44.8614 39.7088 44.5891C40.4314 44.0909 40.7996 43.2364 40.657 42.386L39.241 33.9346L45.3436 27.8418C45.9479 27.2393 46.1551 26.3574 45.8806 25.5568ZM37.5877 32.3633C37.076 32.8741 36.8436 33.5919 36.9616 34.297L38.3767 42.7491L31.118 38.8418C30.7692 38.6542 30.3846 38.5606 29.9998 38.5606C29.616 38.5606 29.2311 38.6542 28.8826 38.8418L21.6227 42.7491L23.0389 34.297C23.1569 33.5919 22.9246 32.8741 22.4129 32.3633L16.3113 26.2716L24.6375 25.0313C25.3982 24.9182 26.0535 24.4425 26.3807 23.7638L29.9998 16.2511L33.6199 23.7638C33.9471 24.4425 34.6014 24.9182 35.3621 25.0313L43.6893 26.2716L37.5877 32.3633Z" fill="#666D89"/>
<path d="M29.5 1C45.2402 1 58 13.7599 58 29.5001C58 45.24 45.2402 57.9999 29.5 57.9999C13.7599 57.9999 1 45.24 1 29.5001C1 13.7599 13.7599 1 29.5 1Z" fill="black" fill-opacity="0.01" stroke="#666D89" stroke-width="2"/>
</svg>
