<svg width="62" height="61" viewBox="0 0 62 61" fill="none" xmlns="http://www.w3.org/2000/svg">
<path fill-rule="evenodd" clip-rule="evenodd" d="M39 14.9996L23 15.0004C21.3428 15.0004 20 16.3433 20 18.0005V44.0006C20 45.6577 21.3428 47.0006 23 47.0006L39 46.9995C40.6572 46.9995 42 45.6569 42 43.9996V17.9997C42 16.3424 40.6572 14.9996 39 14.9996ZM40.0001 43.9996C40.0001 44.5513 39.5519 44.9995 39 44.9995L23 45.0005C22.4482 45.0005 22 44.5522 22 44.0006V41.9966L40.0001 41.9956V43.9996ZM40.0001 40.9957L22 40.9967V21.0004L40.0001 20.9996V40.9957ZM40.0001 19.9996L22 20.0005V18.0005C22 17.4487 22.4482 17.0006 23 17.0006L39 16.9996C39.5519 16.9996 40.0001 17.4479 40.0001 17.9997V19.9996ZM33 18.4996C33 18.7761 32.7764 18.9996 32.5 18.9996H29.5C29.2237 18.9996 29.0001 18.7761 29.0001 18.4996C29.0001 18.2232 29.2237 17.9997 29.5 17.9997H32.5C32.7764 17.9997 33 18.2232 33 18.4996ZM31.5 43.9957C31.7764 43.9957 32 43.772 32 43.4957C32 43.2194 31.7764 42.9956 31.5 42.9956H30.5C30.2236 42.9956 30 43.2194 30 43.4957C30 43.772 30.2236 43.9957 30.5 43.9957H31.5Z" fill="#666D89"/>
<path d="M30.5 2.00003C46.2401 2.00003 59 14.7599 59 30.5001C59 46.2401 46.2401 59 30.5 59C14.76 59 2.00006 46.2401 2.00006 30.5001C2.00006 14.7599 14.76 2.00003 30.5 2.00003Z" fill="black" fill-opacity="0.01" stroke="#666D89" stroke-width="2"/>
</svg>
