<svg width="61" height="61" viewBox="0 0 61 61" fill="none" xmlns="http://www.w3.org/2000/svg">
<path fill-rule="evenodd" clip-rule="evenodd" d="M20 25.0001C20 18.9249 24.9248 14 31 14C37.0752 14 42 18.9249 42 25.0001C42 27.5355 40.52 30.1989 39.0931 32.7668C38.2688 34.2502 37.4622 35.7017 36.9688 37.0783C36.511 38.3549 36.1726 39.5139 35.8724 40.5424C34.8584 44.0155 34.2791 46 31 46C27.7517 46 27.1566 43.985 26.1181 40.4688C25.8179 39.4522 25.4805 38.3101 25.0313 37.0549C24.5393 35.68 23.7323 34.2354 22.9072 32.7584C21.4806 30.2047 20 27.5541 20 25.0001ZM28.6339 41.7959L33.5928 41.1758C33.7031 40.8215 33.8213 40.4308 33.9521 39.9816C34.0014 39.8131 34.0557 39.6323 34.1104 39.45C34.1458 39.3323 34.1814 39.2139 34.2159 39.0978L28.0273 39.8713C28.0288 39.8783 28.0312 39.8864 28.0336 39.8941C28.0345 39.897 28.0353 39.8998 28.0361 39.9026C28.2666 40.6836 28.457 41.2833 28.6339 41.7959ZM27.1211 37C27.3497 37.6721 27.5547 38.3067 27.7363 38.9083L34.5352 38.0588C34.6312 37.7523 34.7405 37.4303 34.8506 37.1065C34.8626 37.071 34.8747 37.0355 34.8867 37H27.1211ZM29.0029 42.75C29.5205 43.8839 29.9873 44.0002 31 44.0002C32.1807 44.0002 32.628 43.8731 33.2412 42.2197L29.0029 42.75ZM26.3389 35H35.6719C36.167 33.9259 36.7598 32.8486 37.3447 31.795C38.6504 29.4464 40.0001 27.0176 40.0001 25.0001C40.0001 20.0371 35.9629 16.0001 31 16.0001C26.0371 16.0001 22 20.0371 22 25.0001C22 27.0333 23.3486 29.4484 24.6533 31.7833C25.2432 32.8399 25.8408 33.921 26.3389 35ZM25 25.0001C25 21.6915 27.6914 19.0002 31 19.0002C31.2764 19.0002 31.5 19.2235 31.5 19.5001C31.5 19.7766 31.2764 20.0001 31 20.0001C28.2432 20.0001 26 22.2433 26 25.0001C26 25.2764 25.7764 25.4999 25.5 25.4999C25.2237 25.4999 25 25.2764 25 25.0001Z" fill="#666D89"/>
<path d="M30.5 2.00003C46.2401 2.00003 59 14.7599 59 30.5001C59 46.2401 46.2401 58.9999 30.5 58.9999C14.7599 58.9999 2.00003 46.2401 2.00003 30.5001C2.00003 14.7599 14.7599 2.00003 30.5 2.00003Z" fill="black" fill-opacity="0.01" stroke="#666D89" stroke-width="2"/>
</svg>
