<svg width="59" height="59" viewBox="0 0 59 59" fill="none" xmlns="http://www.w3.org/2000/svg">
<path fill-rule="evenodd" clip-rule="evenodd" d="M30 21C24.0371 21 19 24.2062 19 28.0001C19 28.2764 19.2236 28.5 19.5 28.5C19.7763 28.5 20 28.2764 20 28.0001C20 24.8038 24.6728 22.0001 30 22.0001C30.2763 22.0001 30.5 21.7766 30.5 21.5C30.5 21.2237 30.2763 21 30 21ZM30 16.0002C21.163 16.0002 14 21.3732 14 28.0001C14 32.127 16.7793 35.7657 21.0078 37.9258C21.0078 37.9531 21 37.9708 21 38C21 39.7929 19.6612 41.7229 19.0722 42.7365C19.0733 42.7365 19.0742 42.7365 19.0742 42.7365C19.0273 42.8458 19 42.9667 19 43.0938C19 43.5947 19.4052 44.0001 19.9062 44.0001C20 44.0001 20.165 43.9746 20.1611 43.9875C23.2861 43.4757 26.2304 40.6046 26.914 39.7717C27.913 39.9181 28.9434 40.0001 30 40.0001C38.8359 40.0001 46.0001 34.6271 46.0001 28.0001C46.0001 21.3732 38.8359 16.0002 30 16.0002ZM30 38C29.083 38 28.1425 37.9306 27.2042 37.7932C27.1074 37.7784 27.0097 37.7715 26.914 37.7715C26.3203 37.7715 25.7509 38.0362 25.3682 38.5029C24.9404 39.0243 23.7226 40.1858 22.2832 41.042C22.6728 40.1477 22.9785 39.1438 22.999 38.1105C23.0048 38.0459 23.0078 37.9815 23.0078 37.9258C23.0078 37.1749 22.587 36.4862 21.9179 36.1447C18.212 34.2519 16 31.207 16 28.0001C16 22.4865 22.2802 18 30 18C37.7197 18 44 22.4865 44 28.0001C44 33.5138 37.7197 38 30 38Z" fill="#666D89"/>
<path d="M29.5 1C45.2401 1 58 13.7599 58 29.5001C58 45.24 45.2401 57.9999 29.5 57.9999C13.7599 57.9999 1.00003 45.24 1.00003 29.5001C1.00003 13.7599 13.7599 1 29.5 1Z" fill="black" fill-opacity="0.01" stroke="#666D89" stroke-width="2"/>
</svg>
