<svg width="62" height="61" viewBox="0 0 62 61" fill="none" xmlns="http://www.w3.org/2000/svg">
<path fill-rule="evenodd" clip-rule="evenodd" d="M44.3955 17.5801C42.75 15.9376 40.5851 15 38.4492 15C36.6494 15 34.9902 15.668 33.7803 16.877L28.9131 21.7812C28.8984 21.7949 28.8809 21.8048 28.8662 21.8193C28.8584 21.8273 28.8535 21.8378 28.8457 21.8458L28.8477 21.8477L18.5176 32.2559C18.042 32.7285 17.6964 33.3185 17.5049 33.961L15.1563 42.4689C15.1534 42.4922 15 43.1612 15 43.4999C15 45.4326 16.5693 47.0001 18.505 47.0001C18.8896 47.0001 19.6349 46.8166 19.6621 46.8125L28.1397 44.5839C28.7832 44.3926 29.3691 44.0449 29.8447 43.5685L45.1074 28.1857C47.8838 25.4064 47.5713 20.75 44.3955 17.5801ZM31.0146 38.7959C30.9326 37.8927 30.6777 37.0078 30.2959 36.1681L39.7501 26.7149C40.3281 28.5411 40.0322 30.4513 38.7646 31.7189C38.7568 31.7267 38.7472 31.7315 38.7393 31.7393L38.752 31.7521L31.0244 39.5411C31.0254 39.2932 31.0372 39.0488 31.0146 38.7959ZM29.7939 35.2559C29.4209 34.6427 28.9971 34.052 28.4717 33.5276C27.8605 32.9161 27.1592 32.4385 26.4277 32.0354L35.9601 22.504C36.707 22.836 37.4248 23.3088 38.0576 23.9415C38.5977 24.4807 39.0166 25.084 39.3379 25.7119L29.7939 35.2559ZM25.4864 31.5627C24.5605 31.1896 23.5898 30.9769 22.6182 30.9639L30.3213 23.2023C31.5 22.0519 33.2178 21.7207 34.9092 22.1406L25.4864 31.5627ZM19.1681 44.873C19.0586 44.8986 18.7197 44.9845 18.4893 45.0001C17.6671 44.9913 17 44.3223 17 43.4999C17.0117 43.333 17.0791 43.044 17.1016 42.9374L18.1543 39.1231C19.2969 39.0919 20.5274 39.5371 21.4941 40.5061C22.4766 41.4875 22.9385 42.7412 22.8877 43.8965L19.1681 44.873ZM23.874 43.6368C23.8496 42.296 23.3037 40.8996 22.2021 39.7999C21.1602 38.7559 19.7969 38.1544 18.4366 38.1007L19.4326 34.4934C19.5049 34.2528 19.6475 34.0167 19.8233 33.8087C21.8291 32.3733 24.9141 32.7971 27.0577 34.9415C29.3242 37.208 29.6748 40.5275 27.9287 42.5098C27.8126 42.5703 27.6954 42.6289 27.5693 42.6672L23.874 43.6368ZM43.6924 26.7725L42.0078 28.4698C42.0078 28.2443 42.0352 28.0265 42.0146 27.796C41.8389 25.8614 40.9355 23.9903 39.4717 22.5273C37.8429 20.8976 35.6816 19.9619 33.543 19.9562L35.2002 18.2861C36.0274 17.459 37.1837 17 38.4492 17C40.0596 17 41.7119 17.7276 42.9825 18.9952C44.1758 20.1864 44.8877 21.666 44.9883 23.163C45.0821 24.5608 44.6221 25.8418 43.6924 26.7725Z" fill="#666D89"/>
<path d="M30.5 2.00003C46.2401 2.00003 59 14.7599 59 30.5001C59 46.2401 46.2401 58.9999 30.5 58.9999C14.76 58.9999 2.00006 46.2401 2.00006 30.5001C2.00006 14.7599 14.76 2.00003 30.5 2.00003Z" fill="black" fill-opacity="0.01" stroke="#666D89" stroke-width="2"/>
</svg>
