<svg width="62" height="61" viewBox="0 0 62 61" fill="none" xmlns="http://www.w3.org/2000/svg">
<path fill-rule="evenodd" clip-rule="evenodd" d="M30.9998 19.5047C34.7605 16.1256 40.5624 16.2007 44.1921 19.7923C47.9334 23.4923 47.9334 29.4905 44.1921 33.1915C44.0711 33.3114 33.1394 44.1217 33.1394 44.1217C31.9568 45.2912 30.0437 45.2912 28.8612 44.1217C28.8612 44.1217 18.8777 34.2488 17.8083 33.1915C14.0671 29.4905 14.0671 23.4923 17.8083 19.7923C21.4392 16.2007 27.24 16.1256 30.9998 19.5047ZM31.7127 42.7111L42.7654 31.7809C45.7156 28.8643 45.7156 24.1186 42.7654 21.2019C39.9226 18.3896 35.3494 18.2911 32.3562 20.9805L30.9998 22.1989L29.6443 20.9805C26.6511 18.2911 22.0789 18.3896 19.2351 21.2019C16.2849 24.1186 16.2849 28.8643 19.2351 31.7809L30.2878 42.7111C30.6795 43.1004 31.3201 43.1004 31.7127 42.7111ZM24.2499 22.0268C24.2503 22.0265 24.2508 22.0262 24.2517 22.0262C24.5281 22.0262 24.7517 22.2495 24.7517 22.5256C24.7517 22.8018 24.5281 23.0251 24.2517 23.0251H24.2508C22.4568 23.0251 21.0017 24.4785 21.0017 26.2704V26.2715C21.0017 26.5473 20.7781 26.7709 20.5017 26.7709C20.2253 26.7709 20.0017 26.5473 20.0017 26.2715C20.0017 23.9284 21.9032 22.0292 24.2478 22.0273C24.2489 22.0273 24.2494 22.027 24.2499 22.0268Z" fill="#666D89"/>
<path d="M30.5 2.00003C46.2402 2.00003 59 14.7599 59 30.5001C59 46.2401 46.2402 58.9999 30.5 58.9999C14.7599 58.9999 2 46.2401 2 30.5001C2 14.7599 14.7599 2.00003 30.5 2.00003Z" fill="black" fill-opacity="0.01" stroke="#666D89" stroke-width="2"/>
</svg>
